X Lossless Decoder version 20181019 (151.1)

XLD extraction logfile from 2019-03-24 21:22:42 +0100

Die drei ??? / 089/Tödliche Spur

Used drive : ASUS BW-16D1HT (revision 3.01)
Media type : Pressed CD

Ripper mode             : XLD Secure Ripper
Disable audio cache     : OK for the drive with a cache less than 1375KiB
Make use of C2 pointers : NO
Read offset correction  : 6
Max retry count         : 40
Gap status              : Analyzed, Appended

TOC of the extracted CD
     Track |   Start  |  Length  | Start sector | End sector 
    ---------------------------------------------------------
        1  | 00:00:00 | 10:25:26 |         0    |    46900   
        2  | 10:25:26 | 04:04:08 |     46901    |    65208   
        3  | 14:29:34 | 15:28:56 |     65209    |   134864   
        4  | 29:58:15 | 06:16:02 |    134865    |   163066   
        5  | 36:14:17 | 09:50:11 |    163067    |   207327   
        6  | 46:04:28 | 13:41:73 |    207328    |   268975   

List of alternate offset correction values
        #  | Absolute | Relative | Confidence 
    ------------------------------------------
        1  |     -6   |    -12   |     24     

AccurateRip Summary (DiscID: 000d864a-0048ccd1-4f0e0206)
    Track 01 : OK (v1+v2, confidence 37/61)
    Track 02 : OK (v1+v2, confidence 37/60)
    Track 03 : OK (v1+v2, confidence 34/57)
    Track 04 : OK (v1+v2, confidence 35/59)
    Track 05 : OK (v1+v2, confidence 34/58)
    Track 06 : OK (v1+v2, confidence 34/54)
        ->All tracks accurately ripped.

All Tracks
    Filename : ~/Projects/Audiobooks/_temp/089／Tödliche Spur.m4a
    CRC32 hash               : AAE8E97C
    CRC32 hash (skip zero)   : E30C9527
    Statistics
        Read error                           : 0
        Jitter error (maybe fixed)           : 0
        Retry sector count                   : 0
        Damaged sector count                 : 0

Track 01
    Pre-gap length : 00:02:00

    CRC32 hash               : E717D1A6
    CRC32 hash (skip zero)   : D75ECF35
    AccurateRip v1 signature : ADAA8C93
    AccurateRip v2 signature : 29664FA9
        ->Accurately ripped (v1+v2, confidence 13+24/61)
    Statistics
        Read error                           : 0
        Jitter error (maybe fixed)           : 0
        Retry sector count                   : 0
        Damaged sector count                 : 0

Track 02

    CRC32 hash               : C55A23DC
    CRC32 hash (skip zero)   : 7CF874C7
    AccurateRip v1 signature : E6D2B1CC
    AccurateRip v2 signature : 85225B01
        ->Accurately ripped (v1+v2, confidence 13+24/60)
    Statistics
        Read error                           : 0
        Jitter error (maybe fixed)           : 0
        Retry sector count                   : 0
        Damaged sector count                 : 0

Track 03

    CRC32 hash               : EB62DFC0
    CRC32 hash (skip zero)   : C353ED0F
    AccurateRip v1 signature : A45E0751
    AccurateRip v2 signature : 99282986
        ->Accurately ripped (v1+v2, confidence 11+23/57)
    Statistics
        Read error                           : 0
        Jitter error (maybe fixed)           : 0
        Retry sector count                   : 0
        Damaged sector count                 : 0

Track 04

    CRC32 hash               : 4045B46C
    CRC32 hash (skip zero)   : 8D0F8D51
    AccurateRip v1 signature : 67A78E57
    AccurateRip v2 signature : 909D39D7
        ->Accurately ripped (v1+v2, confidence 12+23/59)
    Statistics
        Read error                           : 0
        Jitter error (maybe fixed)           : 0
        Retry sector count                   : 0
        Damaged sector count                 : 0

Track 05

    CRC32 hash               : 07EAF9F4
    CRC32 hash (skip zero)   : 4E10361C
    AccurateRip v1 signature : 86927A79
    AccurateRip v2 signature : 952314D0
        ->Accurately ripped (v1+v2, confidence 11+23/58)
    Statistics
        Read error                           : 0
        Jitter error (maybe fixed)           : 0
        Retry sector count                   : 0
        Damaged sector count                 : 0

Track 06

    CRC32 hash               : 4D75D783
    CRC32 hash (skip zero)   : DEEB227D
    AccurateRip v1 signature : FDA082E8
    AccurateRip v2 signature : BE54C63A
        ->Accurately ripped (v1+v2, confidence 12+22/54)
    Statistics
        Read error                           : 0
        Jitter error (maybe fixed)           : 0
        Retry sector count                   : 0
        Damaged sector count                 : 0

No errors occurred

End of status report
